# xmcd
#
# Track frame offsets:
#	150
#	16729
#	31500
#	47555
#	67088
#	84989
#	100612
#	117000
#	136916
#	152797
#	169857
#	184978
#	205226
#
# Disc length: 2964 seconds
#
# Revision: 0
# Processed by: cddbd v1.5.2PL0 Copyright (c) Steve Scherf et al.
# Submitted via: EZCDAudioConverter 3.1.5.1
#
DISCID=9c0b920d
DTITLE=Ellis Hooks - Needle In A Haystack
DYEAR=2015
DGENRE=Blues
TTITLE0=Needle In A Haystack
TTITLE1=Train 2 Train
TTITLE2=To You Who Have Wronged Me (Feat. Steve Cropper)
TTITLE3=Los Angeles
TTITLE4=Time Is A Mofo [Explicit]
TTITLE5=Live The Day
TTITLE6=Now You Know
TTITLE7=I Stand I Scream
TTITLE8=Shortcuts To Infinity
TTITLE9=Put Down Your Needles
TTITLE10=Another Planet
TTITLE11=Follow The Seasons
TTITLE12=America, I'm Coming Home
EXTD=
EXTT0=
EXTT1=
EXTT2=
EXTT3=
EXTT4=
EXTT5=
EXTT6=
EXTT7=
EXTT8=
EXTT9=
EXTT10=
EXTT11=
EXTT12=
PLAYORDER=
